<?xml version="1.0" encoding="UTF-8" standalone="no"?>
<svg
   xmlns:dc="http://purl.org/dc/elements/1.1/"
   xmlns:cc="http://creativecommons.org/ns#"
   xmlns:rdf="http://www.w3.org/1999/02/22-rdf-syntax-ns#"
   xmlns:svg="http://www.w3.org/2000/svg"
   xmlns="http://www.w3.org/2000/svg"
   xmlns:sodipodi="http://sodipodi.sourceforge.net/DTD/sodipodi-0.dtd"
   xmlns:inkscape="http://www.inkscape.org/namespaces/inkscape"
   version="1.1"
   width="17"
   height="17"
   viewBox="0 0 17 17"
   id="svg827"
   sodipodi:docname="eye.svg"
   inkscape:version="1.0.1 (3bc2e813f5, 2020-09-07)">
  <metadata
     id="metadata833">
    <rdf:RDF>
      <cc:Work
         rdf:about="">
        <dc:format>image/svg+xml</dc:format>
        <dc:type
           rdf:resource="http://purl.org/dc/dcmitype/StillImage" />
        <dc:title />
      </cc:Work>
    </rdf:RDF>
  </metadata>
  <defs
     id="defs831" />
  <sodipodi:namedview
     pagecolor="#ffffff"
     bordercolor="#666666"
     borderopacity="1"
     objecttolerance="10"
     gridtolerance="10"
     guidetolerance="10"
     inkscape:pageopacity="0"
     inkscape:pageshadow="2"
     inkscape:window-width="1920"
     inkscape:window-height="1057"
     id="namedview829"
     showgrid="false"
     inkscape:zoom="19.632612"
     inkscape:cx="16.235517"
     inkscape:cy="3.401088"
     inkscape:window-x="-8"
     inkscape:window-y="-8"
     inkscape:window-maximized="1"
     inkscape:current-layer="svg827"
     inkscape:document-rotation="0" />
  <g
     id="g823" />
  <path
     style="fill:#000000;fill-opacity:1"
     d="M 8.5 3.3535156 C 4.722 3.3535156 1.3191563 5.5494063 0.03515625 8.8164062 C -0.01084375 8.9334065 -0.01084375 9.0646406 0.03515625 9.1816406 C 1.3201562 12.449641 4.722 14.646484 8.5 14.646484 C 12.278 14.646484 15.679844 12.451594 16.964844 9.1835938 C 17.011844 9.0655937 17.011844 8.9344065 16.964844 8.8164062 C 15.680844 5.5494063 12.278 3.3535156 8.5 3.3535156 z M 8.3476562 6.3339844 C 9.1515618 6.3339844 9.8046875 6.98711 9.8046875 7.7910156 C 9.8046875 8.594921 9.1521135 9.25 8.3476562 9.25 C 7.5431986 9.25 6.8886718 8.594921 6.8886719 7.7910156 C 6.8886719 6.98711 7.5437506 6.3339844 8.3476562 6.3339844 z M 5.2382812 6.59375 C 5.0828625 6.990052 4.9882812 7.4183416 4.9882812 7.8691406 C 4.9882812 9.8053448 6.5647848 11.380859 8.5019531 11.380859 C 10.437194 11.380859 12.011719 9.8053448 12.011719 7.8691406 C 12.011719 7.4183416 11.917216 6.990052 11.761719 6.59375 C 12.748816 7.1933538 13.539951 8.0591671 13.986328 9.1054688 C 13.111042 11.154671 10.925796 12.523437 8.5 12.523438 C 6.0742047 12.523438 3.888959 11.155406 3.0136719 9.1054688 C 3.4600488 8.0591671 4.2511835 7.1933538 5.2382812 6.59375 z "
     id="path825" />
</svg>
